Coordinates
version=1
nRows=9
nColumns=24
inDegrees=yes

Units are S.I. units (second, meters, Newtons, ...)
Angles are in degrees.

endheader
time	pelvis_tilt	pelvis_list	pelvis_rotation	pelvis_tx	pelvis_ty	pelvis_tz	hip_flexion_r	hip_adduction_r	hip_rotation_r	knee_angle_r	ankle_angle_r	subtalar_angle_r	mtp_angle_r	hip_flexion_l	hip_adduction_l	hip_rotation_l	knee_angle_l	ankle_angle_l	subtalar_angle_l	mtp_angle_l	lumbar_extension	lumbar_bending	lumbar_rotation
      5.52000000	     -4.06150554	      4.20924389	     -4.87214523	     -0.18783066	      0.69962931	      0.16632580	     24.43342372	      1.28461366	      3.19187032	    -66.49056693	     10.55804444	     -3.13282199	      0.00000000	      5.64509248	      9.33629453	     21.38945304	     -3.76246881	      0.32778423	    -30.95641284	      0.00000000	    -12.19163947	     -8.89094133	      0.25195396
      5.53000000	     -4.36380649	      3.50221305	     -4.43954649	     -0.17554694	      0.70048949	      0.16574159	     26.31925489	      2.18722143	      2.57427233	    -64.97147318	     10.95957759	     -3.99266094	      0.00000000	      4.18226557	      8.48414558	     22.13031753	     -2.63278257	      0.53631440	    -31.16867172	      0.00000000	    -12.10359155	     -7.86241794	     -0.29455974
      5.54000000	     -4.54357294	      2.84761515	     -3.94338943	     -0.16335856	      0.70109442	      0.16513725	     27.94141466	      2.97011849	      1.99178562	    -63.05250360	     11.18286895	     -5.04689763	      0.00000000	      2.69351993	      7.70994729	     22.94315427	     -1.63314261	      0.58356696	    -31.73853541	      0.00000000	    -12.23298049	     -6.91388287	     -1.02801414
      5.55000000	     -4.69229350	      2.33077809	     -3.43476149	     -0.15119021	      0.70132383	      0.16452747	     29.40699402	      3.55891299	      1.51926771	    -60.77396307	     11.29551892	     -6.20230915	      0.00000000	      1.27768388	      7.09687006	     23.63467901	     -0.77541953	      0.74518787	    -32.15612045	      0.00000000	    -12.38934182	     -6.12194717	     -1.67372477
      5.56000000	     -4.81907871	      1.93575172	     -2.89669432	     -0.13909620	      0.70120968	      0.16390820	     30.69918487	      3.97701693	      1.16234486	    -58.11343251	     11.30642951	     -7.45296280	      0.00000000	     -0.03628556	      6.63938966	     24.23245251	     -0.10623679	      1.02681724	    -32.46155044	      0.00000000	    -12.59787050	     -5.47892399	     -2.28354795
      5.57000000	     -4.81908863	      1.67338934	     -2.38293840	     -0.12709933	      0.70087429	      0.16340461	     31.70734150	      4.25663763	      1.00078462	    -55.10596999	     11.15783918	     -8.80514865	      0.00000000	     -1.39425838	      6.33443210	     24.80034582	      0.42413296	      1.34788757	    -32.84630682	      0.00000000	    -13.00036639	     -5.03362547	     -3.02967779
      5.58000000	     -4.96363949	      1.49752954	     -1.88999555	     -0.11512289	      0.70008778	      0.16289015	     32.67493100	      4.44485422	      1.06179861	    -51.72840992	     10.96286802	    -10.00799639	      0.00000000	     -2.49459541	      6.14129222	     25.26226304	      0.77320794	      1.83364565	    -33.04128060	      0.00000000	    -13.20627239	     -4.66111395	     -3.62736132
      5.59000000	     -4.94687349	      1.48735133	     -1.39807150	     -0.10326649	      0.69917925	      0.16248962	     33.30276483	      4.45199317	      1.26763555	    -48.03930617	     10.58804392	    -11.48660435	      0.00000000	     -3.70734055	      6.11820887	     25.76769684	      1.02499128	      2.29029717	    -33.23062673	      0.00000000	    -13.68995473	     -4.53926375	     -4.28482033
      5.60000000	     -4.69053889	      1.48480627	     -1.05326683	     -0.09125683	      0.69836083	      0.16224480	     33.40509702	      4.51411014	      1.81705128	    -43.97940008	     10.16593197	    -12.75698618	      0.00000000	     -5.20336238	      6.09627700	     26.14268483	      1.28759172	      2.67964276	    -33.47545318	      0.00000000	    -14.41622808	     -4.43327633	     -4.77045242
